<svg xmlns="http://www.w3.org/2000/svg" width="48" height="48" viewBox="0 0 48 48"><g transform="translate(-16189 -3)"><circle cx="24" cy="24" r="24" transform="translate(16189 3)"/><path d="M11.146,22.045c-.02-.62-.078-1.242-.055-1.86a8.854,8.854,0,0,1,17.584-1.122,24.616,24.616,0,0,1,.149,2.8.529.529,0,0,1-.063.179ZM0,17.429A18.611,18.611,0,0,1,.648,15.2a7.57,7.57,0,0,1,12.245-2.382c.073.072.138.153.224.249a2.244,2.244,0,0,1-.166.206,9.9,9.9,0,0,0-2.987,5.9c-.038.279-.148.354-.424.352-3.025-.01-6.049-.007-9.074-.006-.155,0-.311.012-.466.019Zm30.008,2.076a10.2,10.2,0,0,0-3.2-6.379,7.414,7.414,0,0,1,7.906-2.1,7.786,7.786,0,0,1,5.163,8.484ZM19.943,9.481a4.694,4.694,0,1,1,.045,0ZM7.578,8.8A4.053,4.053,0,1,1,7.594.69,4.053,4.053,0,0,1,7.6,8.8ZM32.325,8.79a4.03,4.03,0,1,1,.024,0Z" transform="translate(16192.986 15.917)" fill="#fff" stroke="rgba(0,0,0,0)" stroke-miterlimit="10" stroke-width="1"/></g></svg>