<svg xmlns="http://www.w3.org/2000/svg" width="25.327" height="25.379" viewBox="0 0 25.327 25.379">
  <path id="Union_16" data-name="Union 16" d="M-11344.36-17891.67c-.468,0-.639-.17-.639-.639v-8.361c0-.477.162-.635.639-.639h1.025v2.217c0,.391.1.494.49.494h2.131c.351,0,.468-.121.468-.477,0-.639,0-1.281,0-1.926v-.291h14.815v2.2c0,.373.116.49.48.49h2.127c.378,0,.485-.107.485-.48v-2.213c.445,0,.863-.023,1.282,0a.432.432,0,0,1,.377.424,1.344,1.344,0,0,1,0,.2v8.34c0,.49-.162.656-.652.656Zm3.7-5.746c.257,0,.409-.143.409-.35a.361.361,0,0,0-.409-.352c-.751,0-1.506,0-2.257,0-.266,0-.409.121-.418.338s.144.359.418.363c.373.01.746.006,1.115.006S-11341.042-17897.406-11340.66-17897.416Zm15.656-.7c-.256,0-.413.135-.423.342a.363.363,0,0,0,.405.359q1.14.009,2.279,0c.257,0,.4-.143.4-.355s-.152-.342-.413-.346c-.369,0-.742,0-1.115,0S-11324.626-17898.121-11325-17898.117Zm-17.6-1.205v-1.973h1.628v1.973Zm17.9,0v-1.965h1.632v1.965Zm-10.661-2.689c-.414-.018-.827,0-1.29,0,.067-.121.107-.2.152-.279q1.228-2.139,2.469-4.275a.734.734,0,0,0,.1-.57,7.164,7.164,0,0,1-.148-.928.467.467,0,0,1,.09-.318c.594-.7,1.2-1.395,1.8-2.1a.291.291,0,0,1,.422-.062c.4.238.806.467,1.21.7a.308.308,0,0,1,.152.422c-.3.85-.589,1.705-.895,2.555-.04.107-.171.184-.261.277a.107.107,0,0,1-.045.02,2.392,2.392,0,0,0-1.722,1.455c-.49.99-1.093,1.92-1.637,2.883a.379.379,0,0,1-.365.227A.212.212,0,0,1-11335.363-17902.016Zm-3.579-.176c0-.328,0-.66,0-.988a.368.368,0,0,1,.346-.4c.652-.014,1.309,0,2.01,0-.3.518-.58,1.006-.867,1.488a.224.224,0,0,1-.171.072c-.216,0-.437,0-.652,0-.162,0-.328,0-.49,0h-.017C-11338.894-17902.02-11338.946-17902.066-11338.942-17902.191Zm13.529.158c0-.08-.014-.162-.014-.238,0-1.65,0-3.295,0-4.941a1.685,1.685,0,0,1,1.35-1.672,1.654,1.654,0,0,1,1.843.971,1.546,1.546,0,0,1,.136.584c.009,1.73,0,3.463,0,5.193a.572.572,0,0,1-.014.1Zm1.146-5.207a.52.52,0,0,0,.5.5.511.511,0,0,0,.513-.486.5.5,0,0,0-.5-.521A.513.513,0,0,0-11324.267-17907.24Zm-6.816,5.207c.022-.1.041-.193.063-.279q1.132-4.228,2.266-8.447a.386.386,0,0,0-.126-.441,2.8,2.8,0,0,1,.756-4.635,1.219,1.219,0,0,1,.333-.051,1.7,1.7,0,0,1,0,.338c-.122.473-.266.939-.374,1.416a.565.565,0,0,0,.063.391c.233.383.5.742.751,1.111a.247.247,0,0,0,.378.1c.4-.207.809-.379,1.2-.59a.5.5,0,0,0,.238-.287c.148-.49.271-.994.414-1.484a.952.952,0,0,1,.148-.242,1.09,1.09,0,0,1,.233.17,2.809,2.809,0,0,1-1.582,4.42.45.45,0,0,0-.392.379q-1.039,3.917-2.095,7.842c-.027.094-.059.188-.09.287Zm-7.153-2.289v-6.137h1.578v6.137Zm-.4-6.865c-.36,0-.509-.148-.513-.508,0-.225,0-.449,0-.707h-.742v-3.592h.266c1.475,0,2.954,0,4.433,0,.428,0,.567.131.567.553q.006,1.242,0,2.482c0,.422-.14.553-.562.557h-.549c0,.258,0,.486,0,.711-.009.355-.161.5-.521.5Zm5.715-1.219c-.329,0-.473-.139-.481-.477,0-.107,0-.217,0-.3a.539.539,0,0,1-.054-.031c-.464-.064-.464-.064-.464-.541,0-.373.014-.746,0-1.115-.009-.229.059-.332.292-.295a1.156,1.156,0,0,0,.229-.02c0-.135,0-.26,0-.381a.4.4,0,0,1,.428-.428c.351-.01.692-.01,1.038,0a.383.383,0,0,1,.423.4c.014.926.014,1.857,0,2.783a.38.38,0,0,1-.423.4q-.208.006-.416.006C-11332.544-17912.4-11332.734-17912.4-11332.926-17912.406Zm-9.929-1.232c-.553.023-1.105.121-1.659.176a1.268,1.268,0,0,1-.292-.045,1,1,0,0,1,.086-.27,5.344,5.344,0,0,1,3.691-2.168c.121-.018.247-.021.391-.039v2.9A3.2,3.2,0,0,0-11342.854-17913.639Z" transform="translate(11345.499 17916.549)" fill="#1a1818" stroke="rgba(0,0,0,0)" stroke-miterlimit="10" stroke-width="1"/>
</svg>
