<svg xmlns="http://www.w3.org/2000/svg" xmlns:xlink="http://www.w3.org/1999/xlink" width="376" height="325" viewBox="0 0 376 325">
  <defs>
    <clipPath id="clip-path">
      <rect id="Rectangle_173" data-name="Rectangle 173" width="376" height="325" transform="translate(140 4221)" fill="#e7ebe9"/>
    </clipPath>
    <clipPath id="clip-path-2">
      <rect id="Rectangle_314" data-name="Rectangle 314" width="345.191" height="353.914" fill="none"/>
    </clipPath>
    <clipPath id="clip-path-4">
      <rect id="Rectangle_263" data-name="Rectangle 263" width="83.806" height="272.079" fill="none"/>
    </clipPath>
    <clipPath id="clip-path-5">
      <rect id="Rectangle_264" data-name="Rectangle 264" width="114.033" height="294.858" fill="none"/>
    </clipPath>
    <clipPath id="clip-path-6">
      <rect id="Rectangle_265" data-name="Rectangle 265" width="93.169" height="304.546" fill="none"/>
    </clipPath>
    <clipPath id="clip-path-8">
      <rect id="Rectangle_269" data-name="Rectangle 269" width="296.827" height="7.069" fill="none"/>
    </clipPath>
    <clipPath id="clip-path-9">
      <rect id="Rectangle_270" data-name="Rectangle 270" width="296.827" height="26.012" fill="none"/>
    </clipPath>
    <clipPath id="clip-path-10">
      <rect id="Rectangle_272" data-name="Rectangle 272" width="12.774" height="5.462" fill="none"/>
    </clipPath>
    <clipPath id="clip-path-12">
      <rect id="Rectangle_275" data-name="Rectangle 275" width="19.748" height="19.749" fill="none"/>
    </clipPath>
    <clipPath id="clip-path-13">
      <rect id="Rectangle_277" data-name="Rectangle 277" width="29.379" height="2.419" fill="none"/>
    </clipPath>
    <clipPath id="clip-path-14">
      <rect id="Rectangle_279" data-name="Rectangle 279" width="29.379" height="2.418" fill="none"/>
    </clipPath>
    <clipPath id="clip-path-18">
      <rect id="Rectangle_292" data-name="Rectangle 292" width="32.7" height="66.57" fill="none"/>
    </clipPath>
    <clipPath id="clip-path-19">
      <rect id="Rectangle_293" data-name="Rectangle 293" width="15.403" height="23.041" fill="none"/>
    </clipPath>
    <clipPath id="clip-path-20">
      <rect id="Rectangle_294" data-name="Rectangle 294" width="54.412" height="128.818" fill="none"/>
    </clipPath>
    <clipPath id="clip-path-21">
      <rect id="Rectangle_295" data-name="Rectangle 295" width="23.697" height="51.237" fill="none"/>
    </clipPath>
    <clipPath id="clip-path-22">
      <rect id="Rectangle_296" data-name="Rectangle 296" width="51.493" height="83.191" fill="none"/>
    </clipPath>
  </defs>
  <g id="Group_657" data-name="Group 657" transform="translate(-140 -4411)">
    <g id="Mask_Group_7" data-name="Mask Group 7" transform="translate(0 190)" opacity="0.9" clip-path="url(#clip-path)" style="mix-blend-mode: luminosity;isolation: isolate">
      <g id="Group_532" data-name="Group 532" transform="translate(157 4231)">
        <g id="Group_531" data-name="Group 531" clip-path="url(#clip-path-2)">
          <g id="Group_483" data-name="Group 483">
            <g id="Group_482" data-name="Group 482" clip-path="url(#clip-path-2)">
              <g id="Group_475" data-name="Group 475" transform="translate(5.565 36.369)" opacity="0.12">
                <g id="Group_474" data-name="Group 474">
                  <g id="Group_473" data-name="Group 473" clip-path="url(#clip-path-4)">
                    <path id="Path_6624" data-name="Path 6624" d="M89.844,39.463a152.317,152.317,0,0,0,0,272.079Z" transform="translate(-6.039 -39.463)" fill="#346fa4"/>
                  </g>
                </g>
              </g>
              <g id="Group_478" data-name="Group 478" transform="translate(196.079 24.98)" opacity="0.12">
                <g id="Group_477" data-name="Group 477">
                  <g id="Group_476" data-name="Group 476" clip-path="url(#clip-path-5)">
                    <path id="Path_6625" data-name="Path 6625" d="M212.757,27.1V321.963a152.319,152.319,0,0,0,0-294.858" transform="translate(-212.757 -27.105)" fill="#346fa4"/>
                  </g>
                </g>
              </g>
              <g id="Group_481" data-name="Group 481" transform="translate(96.14 20.136)" opacity="0.12">
                <g id="Group_480" data-name="Group 480">
                  <g id="Group_479" data-name="Group 479" clip-path="url(#clip-path-6)">
                    <path id="Path_6626" data-name="Path 6626" d="M197.487,25.113a152.843,152.843,0,0,0-93.169,9.764v278.49a152.884,152.884,0,0,0,93.169,9.764Z" transform="translate(-104.318 -21.849)" fill="#346fa4"/>
                  </g>
                </g>
              </g>
            </g>
          </g>
          <rect id="Rectangle_267" data-name="Rectangle 267" width="345.191" height="10.037" transform="translate(0 266.56)" fill="#f3d4c5"/>
          <g id="Group_530" data-name="Group 530">
            <g id="Group_529" data-name="Group 529" clip-path="url(#clip-path-2)">
              <path id="Path_6627" data-name="Path 6627" d="M314.477,377.441H43.055a12.7,12.7,0,0,1-12.7-12.7V300.125H327.179V364.74a12.7,12.7,0,0,1-12.7,12.7" transform="translate(-2.379 -23.527)" fill="#f3d4c5"/>
              <g id="Group_486" data-name="Group 486" transform="translate(27.973 276.598)" style="mix-blend-mode: multiply;isolation: isolate">
                <g id="Group_485" data-name="Group 485">
                  <g id="Group_484" data-name="Group 484" clip-path="url(#clip-path-8)">
                    <rect id="Rectangle_268" data-name="Rectangle 268" width="296.827" height="7.069" transform="translate(0 0)" fill="#e1c5b2"/>
                  </g>
                </g>
              </g>
              <g id="Group_489" data-name="Group 489" transform="translate(27.973 276.598)" style="mix-blend-mode: multiply;isolation: isolate">
                <g id="Group_488" data-name="Group 488">
                  <g id="Group_487" data-name="Group 487" clip-path="url(#clip-path-9)">
                    <path id="Path_6628" data-name="Path 6628" d="M30.352,300.125l296.827,26.011V300.125Z" transform="translate(-30.352 -300.125)" fill="#e1c5b2"/>
                  </g>
                </g>
              </g>
              <path id="Path_6629" data-name="Path 6629" d="M325.968,221.5H231.709a9.9,9.9,0,0,1-9.9-9.9V106.313a9.9,9.9,0,0,1,9.9-9.9h94.259a9.9,9.9,0,0,1,9.9,9.9V211.6a9.9,9.9,0,0,1-9.9,9.9" transform="translate(-17.388 -7.558)" fill="#349bd1"/>
              <path id="Path_6630" data-name="Path 6630" d="M334.65,221.5H240.391a9.9,9.9,0,0,1-9.9-9.9V106.313a9.9,9.9,0,0,1,9.9-9.9H334.65a9.9,9.9,0,0,1,9.9,9.9V211.6a9.9,9.9,0,0,1-9.9,9.9" transform="translate(-18.069 -7.558)" fill="#346fa4"/>
              <path id="Path_6631" data-name="Path 6631" d="M334.219,280.606H302.282L274.908,179.169h31.936Z" transform="translate(-21.551 -14.045)" fill="#346fa4"/>
              <path id="Path_6632" data-name="Path 6632" d="M258.712,288.723h46.993l-1.623-6.014h-45.37Z" transform="translate(-20.281 -22.162)" fill="#346fa4"/>
              <g id="Group_492" data-name="Group 492" transform="translate(225.657 198.112)" style="mix-blend-mode: multiply;isolation: isolate">
                <g id="Group_491" data-name="Group 491">
                  <g id="Group_490" data-name="Group 490" clip-path="url(#clip-path-10)">
                    <rect id="Rectangle_271" data-name="Rectangle 271" width="12.774" height="5.461" transform="translate(0 0.001)" fill="#346fa4"/>
                  </g>
                </g>
              </g>
              <g id="Group_495" data-name="Group 495" transform="translate(242.994 198.112)" style="mix-blend-mode: multiply;isolation: isolate">
                <g id="Group_494" data-name="Group 494">
                  <g id="Group_493" data-name="Group 493" clip-path="url(#clip-path-10)">
                    <rect id="Rectangle_273" data-name="Rectangle 273" width="12.774" height="5.461" transform="translate(0 0.001)" fill="#346fa4"/>
                  </g>
                </g>
              </g>
              <g id="Group_498" data-name="Group 498" transform="translate(263.232 122.107)" style="mix-blend-mode: multiply;isolation: isolate">
                <g id="Group_497" data-name="Group 497">
                  <g id="Group_496" data-name="Group 496" clip-path="url(#clip-path-12)">
                    <path id="Path_6633" data-name="Path 6633" d="M305.37,142.367a9.874,9.874,0,1,1-9.874-9.874,9.874,9.874,0,0,1,9.874,9.874" transform="translate(-285.622 -132.493)" fill="#346fa4"/>
                  </g>
                </g>
              </g>
              <path id="Path_6634" data-name="Path 6634" d="M339.31,280.606H307.374L280,179.169h31.936Z" transform="translate(-21.95 -14.045)" fill="#349bd1"/>
              <path id="Path_6635" data-name="Path 6635" d="M283,227.986l-8.094-48.818,13.174,48.818Z" transform="translate(-21.551 -14.045)" fill="#1e1f0f"/>
              <g id="Group_501" data-name="Group 501" transform="translate(220.003 172.285)" style="mix-blend-mode: multiply;isolation: isolate">
                <g id="Group_500" data-name="Group 500">
                  <g id="Group_499" data-name="Group 499" clip-path="url(#clip-path-13)">
                    <rect id="Rectangle_276" data-name="Rectangle 276" width="29.378" height="2.419" transform="translate(0.001)" fill="#346fa4"/>
                  </g>
                </g>
              </g>
              <g id="Group_504" data-name="Group 504" transform="translate(220.003 175.989)" style="mix-blend-mode: multiply;isolation: isolate">
                <g id="Group_503" data-name="Group 503">
                  <g id="Group_502" data-name="Group 502" clip-path="url(#clip-path-14)">
                    <rect id="Rectangle_278" data-name="Rectangle 278" width="29.378" height="2.418" transform="translate(0.001 0)" fill="#346fa4"/>
                  </g>
                </g>
              </g>
              <g id="Group_507" data-name="Group 507" transform="translate(220.003 179.692)" style="mix-blend-mode: multiply;isolation: isolate">
                <g id="Group_506" data-name="Group 506">
                  <g id="Group_505" data-name="Group 505" clip-path="url(#clip-path-13)">
                    <rect id="Rectangle_280" data-name="Rectangle 280" width="29.378" height="2.418" transform="translate(0.001 0.001)" fill="#346fa4"/>
                  </g>
                </g>
              </g>
              <g id="Group_510" data-name="Group 510" transform="translate(220.003 183.396)" style="mix-blend-mode: multiply;isolation: isolate">
                <g id="Group_509" data-name="Group 509">
                  <g id="Group_508" data-name="Group 508" clip-path="url(#clip-path-14)">
                    <rect id="Rectangle_282" data-name="Rectangle 282" width="29.378" height="2.418" transform="translate(0.001 0)" fill="#346fa4"/>
                  </g>
                </g>
              </g>
              <g id="Group_513" data-name="Group 513" transform="translate(220.003 187.099)" style="mix-blend-mode: multiply;isolation: isolate">
                <g id="Group_512" data-name="Group 512">
                  <g id="Group_511" data-name="Group 511" clip-path="url(#clip-path-13)">
                    <rect id="Rectangle_284" data-name="Rectangle 284" width="29.378" height="2.418" transform="translate(0.001 0.001)" fill="#346fa4"/>
                  </g>
                </g>
              </g>
              <line id="Line_22" data-name="Line 22" x2="27.374" y2="101.437" transform="translate(258.05 165.123)" fill="none" stroke="#024870" stroke-miterlimit="10" stroke-width="0.99"/>
              <rect id="Rectangle_286" data-name="Rectangle 286" width="12.968" height="34.276" transform="translate(305.512 169.765)" fill="none" stroke="#024870" stroke-miterlimit="10" stroke-width="0.99"/>
              <path id="Path_6636" data-name="Path 6636" d="M188.6,225.208v31.024h41.934a34.58,34.58,0,0,1,20.914,6.829c5.636,4.271,10.759,10.957,10.759,21.154H163.664l2.433-59.007Z" transform="translate(-12.83 -17.655)" fill="#d85f4c"/>
              <rect id="Rectangle_287" data-name="Rectangle 287" width="8.571" height="5.873" transform="translate(253.357 249.167)" fill="#346fa4"/>
              <rect id="Rectangle_288" data-name="Rectangle 288" width="8.571" height="5.873" transform="translate(240.811 249.167)" fill="#346fa4"/>
              <rect id="Rectangle_289" data-name="Rectangle 289" width="8.571" height="5.873" transform="translate(228.264 249.167)" fill="#346fa4"/>
              <rect id="Rectangle_290" data-name="Rectangle 290" width="8.571" height="5.873" transform="translate(215.717 249.167)" fill="#346fa4"/>
              <rect id="Rectangle_291" data-name="Rectangle 291" width="58.699" height="11.52" transform="translate(210.753 255.04)" fill="#349bd1"/>
              <path id="Path_6637" data-name="Path 6637" d="M170.866,153.922s17.946,9.429,17.946,24.028v41.671H166.3Z" transform="translate(-13.037 -12.066)" fill="#ba3020"/>
              <path id="Path_6638" data-name="Path 6638" d="M126.882,140.692l-28.9,18.884V277.59h77.561V165.963s.3-6.388-10.037-13.079S144.6,140.692,144.6,140.692Z" transform="translate(-7.681 -11.029)" fill="#e53020"/>
              <g id="Group_516" data-name="Group 516" transform="translate(92.756 182.597)" opacity="0.61" style="mix-blend-mode: multiply;isolation: isolate">
                <g id="Group_515" data-name="Group 515">
                  <g id="Group_514" data-name="Group 514" clip-path="url(#clip-path-18)">
                    <path id="Path_6639" data-name="Path 6639" d="M103.975,242.247s19.489-10.95,26.625-41.061c2.574-11.862,5.919,13.687-3.509,27.375S109.209,253.2,118.682,245.9s19.851-8.668,3.712,8.212-21.748,8.517-21.748,8.517Z" transform="translate(-100.646 -198.129)" fill="#2c0a0c"/>
                  </g>
                </g>
              </g>
              <path id="Path_6640" data-name="Path 6640" d="M217.039,268.112H197.987v19.466h38.324v-.194a19.272,19.272,0,0,0-19.272-19.272" transform="translate(-15.521 -21.018)" fill="#fefefe"/>
              <path id="Path_6641" data-name="Path 6641" d="M152.392,160.792c5.379-1,2.886-10.363.526-16.709-3.741-2.1-6.23-3.392-6.23-3.392H128.971l-4.333,2.832c4.368,5.916,15.483,18.92,27.754,17.268" transform="translate(-9.771 -11.029)" fill="#ba3020"/>
              <path id="Path_6642" data-name="Path 6642" d="M95.448,161.182S81.153,170,78.719,181.256c-1.751,8.1-9.016,55.268-12.951,81.076A14.655,14.655,0,0,0,80.257,279.2H210.42s3.345-27.983-41.975-27.983H104.573l7.3-50.794s2.433-34.979-16.425-39.237" transform="translate(-5.142 -12.635)" fill="#ef7d6e"/>
              <line id="Line_23" data-name="Line 23" x1="13.349" transform="translate(86.081 238.578)" fill="none" stroke="#61241e" stroke-miterlimit="10" stroke-width="0.99"/>
              <path id="Path_6643" data-name="Path 6643" d="M220.816,267.388H182.145v-8.517h38.671a4.216,4.216,0,0,1,4.215,4.215v.086a4.216,4.216,0,0,1-4.215,4.215" transform="translate(-14.279 -20.293)" fill="#ef7d6e"/>
              <g id="Group_519" data-name="Group 519" transform="translate(60.455 243.519)" opacity="0.18" style="mix-blend-mode: multiply;isolation: isolate">
                <g id="Group_518" data-name="Group 518">
                  <g id="Group_517" data-name="Group 517" clip-path="url(#clip-path-19)">
                    <path id="Path_6644" data-name="Path 6644" d="M66.711,264.234c-.331,2.163-.647,4.231-.943,6.178a14.655,14.655,0,0,0,14.49,16.864h.217a19.221,19.221,0,0,0-13.764-23.041" transform="translate(-65.597 -264.233)" fill="#2c0a0c"/>
                  </g>
                </g>
              </g>
              <path id="Path_6645" data-name="Path 6645" d="M110.224,216.209l2.269-15.79s2.434-34.979-16.424-39.237c0,0-14.3,8.821-16.729,20.074-.895,4.138-3.229,18.476-5.823,34.952Z" transform="translate(-5.763 -12.635)" fill="#e53020"/>
              <path id="Path_6646" data-name="Path 6646" d="M109.6,224.531H72.839l1.253-7.96h36.651Z" transform="translate(-5.71 -16.977)" fill="#e53020"/>
              <path id="Path_6647" data-name="Path 6647" d="M109.6,224.531H72.839l1.253-7.96h36.651Z" transform="translate(-5.71 -16.977)" fill="#ba3020"/>
              <line id="Line_24" data-name="Line 24" y1="24.956" x2="2.933" transform="translate(103.889 182.597)" fill="none" stroke="#61241e" stroke-miterlimit="10" stroke-width="0.99"/>
              <path id="Path_6648" data-name="Path 6648" d="M208.062,287.578s-1.74-16.144-17.336-19.466" transform="translate(-14.951 -21.018)" fill="none" stroke="#61241e" stroke-miterlimit="10" stroke-width="0.99"/>
              <g id="Group_522" data-name="Group 522" transform="translate(60.455 132.495)" opacity="0.61" style="mix-blend-mode: multiply;isolation: isolate">
                <g id="Group_521" data-name="Group 521">
                  <g id="Group_520" data-name="Group 520" clip-path="url(#clip-path-20)">
                    <path id="Path_6649" data-name="Path 6649" d="M92.436,184.272c4.544-19.431,27.565-40.5,27.574-40.507L95.449,159.817s-14.3,8.821-16.729,20.074c-1.751,8.1-9.016,55.268-12.951,81.076a14.579,14.579,0,0,0,3.255,11.616C87.779,260.19,88.292,202,92.436,184.272" transform="translate(-65.597 -143.765)" fill="#2c0a0c"/>
                  </g>
                </g>
              </g>
              <path id="Path_6650" data-name="Path 6650" d="M139.825,74.188h7.357a3.891,3.891,0,0,1,3.891,3.891v3.45h-5.095V76.745s.093-2.557-6.154-2.557" transform="translate(-10.961 -5.816)" fill="#1e1f0f"/>
              <path id="Path_6651" data-name="Path 6651" d="M130.229,123.262s-7.724-4.588-7.724-13.1V93.891s.833-14.582,12.38-16.444a45.454,45.454,0,0,1,20.762,1.49Z" transform="translate(-9.603 -6.027)" fill="#61241e"/>
              <path id="Path_6652" data-name="Path 6652" d="M147.057,124.436v14.086s11.8,21.805-2.56,13.543-15.157-13.543-15.157-13.543V113Z" transform="translate(-10.139 -8.858)" fill="#ef7d6e"/>
              <path id="Path_6653" data-name="Path 6653" d="M156.78,92.235s11.61-2.573,8.631-18.555c-10.7,4.74-14.763,4.469-20.858,5.011s-7.584,10.429-7.584,11.648,19.811,1.9,19.811,1.9" transform="translate(-10.737 -5.776)" fill="#983533"/>
              <path id="Path_6654" data-name="Path 6654" d="M147.256,135V124.729l-3.4-2.193-11.985-5.8s8.462,15.343,15.382,18.267" transform="translate(-10.338 -9.151)" fill="#1e1f0f"/>
              <path id="Path_6655" data-name="Path 6655" d="M152.251,86.756a8.151,8.151,0,0,1,6.538,3.6,14.511,14.511,0,0,1,2.183,8.1v21.679a5.782,5.782,0,0,1-6.066,5.785c-7.765-.4-20.786-2.937-25.566-14.994V95.419S133.6,87.51,139.681,86.9a101.379,101.379,0,0,1,12.57-.146" transform="translate(-10.139 -6.791)" fill="#ef7d6e"/>
              <path id="Path_6656" data-name="Path 6656" d="M151.758,103.975c0,1.26-.715,2.281-1.6,2.281s-1.6-1.021-1.6-2.281.714-2.281,1.6-2.281,1.6,1.021,1.6,2.281" transform="translate(-11.646 -7.972)" fill="#61241e"/>
              <path id="Path_6657" data-name="Path 6657" d="M158.465,113.1l4.067-.79-2.584-8.137" transform="translate(-12.422 -8.166)" fill="none" stroke="#983533" stroke-linecap="round" stroke-miterlimit="10" stroke-width="0.99"/>
              <path id="Path_6658" data-name="Path 6658" d="M153.9,95.949s-5.932-2.053-10.038,1.369" transform="translate(-11.278 -7.474)" fill="none" stroke="#983533" stroke-linecap="round" stroke-miterlimit="10" stroke-width="2.97"/>
              <path id="Path_6659" data-name="Path 6659" d="M161.14,118.649v1.76s-4.567.161-6.388-1.76Z" transform="translate(-12.131 -9.301)" fill="#fff"/>
              <path id="Path_6660" data-name="Path 6660" d="M126.045,92.275V81.23a7.042,7.042,0,0,1,7.042-7.042h5.658l-1.933.263a5.105,5.105,0,0,0-4.417,5.059V92.755Z" transform="translate(-9.881 -5.816)" fill="#346fa4"/>
              <path id="Path_6661" data-name="Path 6661" d="M136.333,105.909a8.059,8.059,0,1,1-16.117,0V99.815a8.059,8.059,0,1,1,16.117,0Z" transform="translate(-9.424 -7.193)" fill="#fefefe"/>
              <path id="Path_6662" data-name="Path 6662" d="M124.5,93.39a6.441,6.441,0,0,0-1.03.09,8.036,8.036,0,0,0-3.259,6.462v6.095a8.017,8.017,0,0,0,1.327,4.424,6.45,6.45,0,0,0,9.418-5.732V99.846A6.456,6.456,0,0,0,124.5,93.39" transform="translate(-9.424 -7.321)" fill="#346fa4"/>
              <path id="Path_6663" data-name="Path 6663" d="M126.817,106.17a1.287,1.287,0,1,1-2.573,0V99.1a1.287,1.287,0,1,1,2.573,0Z" transform="translate(-9.74 -7.668)" fill="#fefefe"/>
              <path id="Path_6664" data-name="Path 6664" d="M133.148,111.448a26.049,26.049,0,0,0,12.307,8.4" transform="translate(-10.438 -8.737)" fill="none" stroke="#346fa4" stroke-linecap="round" stroke-miterlimit="10" stroke-width="2.97"/>
              <path id="Path_6665" data-name="Path 6665" d="M151.8,122.306a2.342,2.342,0,0,1-2.972,1.463l-3.345-1.138A2.342,2.342,0,0,1,147,118.2l3.346,1.139a2.341,2.341,0,0,1,1.463,2.971" transform="translate(-11.281 -9.256)" fill="#222221"/>
              <g id="Group_525" data-name="Group 525" transform="translate(131.466 67.904)" opacity="0.59" style="mix-blend-mode: overlay;isolation: isolate">
                <g id="Group_524" data-name="Group 524">
                  <g id="Group_523" data-name="Group 523" clip-path="url(#clip-path-21)">
                    <path id="Path_6666" data-name="Path 6666" d="M162.016,119.124V97.445a15.256,15.256,0,0,0-1.434-6.762c3.167-2.106,7.168-6.843,5.274-17-2.132.944-3.991,1.682-5.663,2.274l0,0s2.176,4.923-6.9,9.784c-4.509,3.491-13.863,7.414-9.529,22.745a44.319,44.319,0,0,0,8.074,16.022c1.465.206,2.859.335,4.109.4a5.783,5.783,0,0,0,6.066-5.785" transform="translate(-142.648 -73.68)" fill="#fff"/>
                  </g>
                </g>
              </g>
              <g id="Group_528" data-name="Group 528" transform="translate(124.282 120.392)" opacity="0.59" style="mix-blend-mode: overlay;isolation: isolate">
                <g id="Group_527" data-name="Group 527">
                  <g id="Group_526" data-name="Group 526" clip-path="url(#clip-path-22)">
                    <path id="Path_6667" data-name="Path 6667" d="M186.346,176.124c0-14.6-17.946-24.028-17.946-24.028C158.059,145.4,147.49,139.9,147.49,139.9v-3.811l-6.569-5.46s-10.939,9.47-3.44,30.154,12.736,52.083,30.8,53.027c9.834.514,15.208-19.146,18.064-37.169Z" transform="translate(-134.853 -130.633)" fill="#fff"/>
                  </g>
                </g>
              </g>
              <path id="Path_6668" data-name="Path 6668" d="M115.279,198.129l-7.391,55.98h8.462Z" transform="translate(-8.458 -15.532)" fill="#1e1f0f"/>
              <path id="Path_6669" data-name="Path 6669" d="M280.542,17.189h-4.333v6.08h-29.7V17.694H242v33.18l-.034,13.084H246.3l1.954-5.638L276,58.943l.176,4.509h4.333V54.813h-27.6l-6.4-9.135,3.535-18.222,13.638-2.018,17.17-1.377Z" transform="translate(-18.968 -1.347)" fill="#346fa4"/>
              <path id="Path_6670" data-name="Path 6670" d="M258.16,15.816A24.681,24.681,0,1,0,282.84,40.5,24.681,24.681,0,0,0,258.16,15.816m0,38.532A13.852,13.852,0,1,1,272.011,40.5,13.852,13.852,0,0,1,258.16,54.348" transform="translate(-18.303 -1.24)" fill="#346fa4"/>
              <rect id="Rectangle_297" data-name="Rectangle 297" width="8.142" height="6.378" transform="translate(235.786 10.544)" fill="#346fa4"/>
              <rect id="Rectangle_298" data-name="Rectangle 298" width="6.378" height="8.142" transform="translate(252.731 20.351) rotate(-45)" fill="#346fa4"/>
              <rect id="Rectangle_299" data-name="Rectangle 299" width="6.378" height="8.142" transform="translate(261.884 34.893)" fill="#346fa4"/>
              <rect id="Rectangle_300" data-name="Rectangle 300" width="8.142" height="6.378" transform="translate(252.697 57.596) rotate(-45)" fill="#346fa4"/>
              <rect id="Rectangle_301" data-name="Rectangle 301" width="8.142" height="6.378" transform="translate(236.31 61.53)" fill="#346fa4"/>
              <rect id="Rectangle_302" data-name="Rectangle 302" width="6.378" height="8.142" transform="translate(217.24 56.853) rotate(-45)" fill="#346fa4"/>
              <rect id="Rectangle_303" data-name="Rectangle 303" width="6.378" height="8.142" transform="translate(211.976 35.416)" fill="#346fa4"/>
              <rect id="Rectangle_304" data-name="Rectangle 304" width="8.142" height="6.378" transform="translate(217.274 22.104) rotate(-45)" fill="#346fa4"/>
              <path id="Path_6671" data-name="Path 6671" d="M262.862,15.816A24.681,24.681,0,1,0,287.543,40.5a24.681,24.681,0,0,0-24.682-24.681m0,38.532A13.852,13.852,0,1,1,276.713,40.5a13.852,13.852,0,0,1-13.852,13.852" transform="translate(-18.671 -1.24)" fill="#349bd1"/>
              <rect id="Rectangle_305" data-name="Rectangle 305" width="8.142" height="6.378" transform="translate(240.119 10.544)" fill="#349bd1"/>
              <rect id="Rectangle_306" data-name="Rectangle 306" width="6.378" height="8.142" transform="translate(257.065 20.351) rotate(-45)" fill="#349bd1"/>
              <rect id="Rectangle_307" data-name="Rectangle 307" width="6.378" height="8.142" transform="translate(266.218 34.893)" fill="#349bd1"/>
              <rect id="Rectangle_308" data-name="Rectangle 308" width="8.143" height="6.377" transform="matrix(0.707, -0.707, 0.707, 0.707, 257.031, 57.596)" fill="#349bd1"/>
              <rect id="Rectangle_309" data-name="Rectangle 309" width="8.142" height="6.378" transform="translate(240.643 61.53)" fill="#349bd1"/>
              <rect id="Rectangle_310" data-name="Rectangle 310" width="6.378" height="8.143" transform="translate(221.573 56.853) rotate(-45.004)" fill="#349bd1"/>
              <rect id="Rectangle_311" data-name="Rectangle 311" width="6.378" height="8.142" transform="translate(216.31 35.416)" fill="#349bd1"/>
              <rect id="Rectangle_312" data-name="Rectangle 312" width="8.142" height="6.378" transform="translate(221.607 22.104) rotate(-45)" fill="#349bd1"/>
              <path id="Path_6672" data-name="Path 6672" d="M98.644,19.924H55.056a9.109,9.109,0,0,0-9.108,9.108V52.474a9.109,9.109,0,0,0,9.108,9.108h12.3L86.736,74.865l-6.39-13.282h18.3a9.108,9.108,0,0,0,9.107-9.108V29.032a9.108,9.108,0,0,0-9.107-9.108" transform="translate(-3.602 -1.562)" fill="#346fa4"/>
              <path id="Path_6673" data-name="Path 6673" d="M93.726,19.924H50.138a9.109,9.109,0,0,0-9.108,9.108V52.474a9.109,9.109,0,0,0,9.108,9.108h12.3L81.819,74.865l-6.39-13.282h18.3a9.109,9.109,0,0,0,9.108-9.108V29.032a9.109,9.109,0,0,0-9.108-9.108" transform="translate(-3.216 -1.562)" fill="#349bd1"/>
              <path id="Path_6674" data-name="Path 6674" d="M59.985,42.78a4.209,4.209,0,1,1-4.209-4.208,4.209,4.209,0,0,1,4.209,4.208" transform="translate(-4.042 -3.024)" fill="#fff"/>
              <path id="Path_6675" data-name="Path 6675" d="M78.411,42.78A4.208,4.208,0,1,1,74.2,38.572a4.208,4.208,0,0,1,4.208,4.208" transform="translate(-5.487 -3.024)" fill="#fff"/>
              <path id="Path_6676" data-name="Path 6676" d="M96.837,42.78a4.209,4.209,0,1,1-4.208-4.208,4.208,4.208,0,0,1,4.208,4.208" transform="translate(-6.931 -3.024)" fill="#fff"/>
              <path id="Path_6677" data-name="Path 6677" d="M89.277,78.408H84.745l-6.39-13.282h4.532Z" transform="translate(-6.142 -5.105)" fill="#346fa4"/>
              <path id="Path_6678" data-name="Path 6678" d="M183.581,0H147.219a7.6,7.6,0,0,0-7.6,7.6V27.154a7.6,7.6,0,0,0,7.6,7.6h10.259l16.17,11.08-5.331-11.08h15.264a7.6,7.6,0,0,0,7.6-7.6V7.6a7.6,7.6,0,0,0-7.6-7.6" transform="translate(-10.945)" fill="#346fa4"/>
              <path id="Path_6679" data-name="Path 6679" d="M179.479,0H143.117a7.6,7.6,0,0,0-7.6,7.6V27.154a7.6,7.6,0,0,0,7.6,7.6h10.259l16.17,11.08-5.331-11.08h15.264a7.6,7.6,0,0,0,7.6-7.6V7.6a7.6,7.6,0,0,0-7.6-7.6" transform="translate(-10.624)" fill="#349bd1"/>
              <path id="Path_6680" data-name="Path 6680" d="M151.331,19.066a3.511,3.511,0,1,1-3.51-3.51,3.51,3.51,0,0,1,3.51,3.51" transform="translate(-11.313 -1.219)" fill="#fff"/>
              <path id="Path_6681" data-name="Path 6681" d="M166.7,19.066a3.511,3.511,0,1,1-3.51-3.51,3.51,3.51,0,0,1,3.51,3.51" transform="translate(-12.518 -1.219)" fill="#fff"/>
              <path id="Path_6682" data-name="Path 6682" d="M182.074,19.066a3.511,3.511,0,1,1-3.51-3.51,3.51,3.51,0,0,1,3.51,3.51" transform="translate(-13.723 -1.219)" fill="#fff"/>
              <path id="Path_6683" data-name="Path 6683" d="M175.767,48.788h-3.78l-5.331-11.08h3.78Z" transform="translate(-13.064 -2.956)" fill="#346fa4"/>
              <path id="Path_6684" data-name="Path 6684" d="M48.392,93.783H12.03a7.6,7.6,0,0,0-7.6,7.6v19.557a7.6,7.6,0,0,0,7.6,7.6H22.289l16.17,11.081-5.331-11.081H48.392a7.6,7.6,0,0,0,7.6-7.6V101.381a7.6,7.6,0,0,0-7.6-7.6" transform="translate(-0.347 -7.352)" fill="#346fa4"/>
              <path id="Path_6685" data-name="Path 6685" d="M44.29,93.783H7.928a7.6,7.6,0,0,0-7.6,7.6v19.557a7.6,7.6,0,0,0,7.6,7.6H18.187l16.17,11.081-5.331-11.081H44.29a7.6,7.6,0,0,0,7.6-7.6V101.381a7.6,7.6,0,0,0-7.6-7.6" transform="translate(-0.026 -7.352)" fill="#349bd1"/>
              <path id="Path_6686" data-name="Path 6686" d="M16.142,112.849a3.511,3.511,0,1,1-3.51-3.509,3.51,3.51,0,0,1,3.51,3.509" transform="translate(-0.715 -8.571)" fill="#fff"/>
              <path id="Path_6687" data-name="Path 6687" d="M31.514,112.849A3.511,3.511,0,1,1,28,109.34a3.51,3.51,0,0,1,3.51,3.509" transform="translate(-1.92 -8.571)" fill="#fff"/>
              <path id="Path_6688" data-name="Path 6688" d="M46.885,112.849a3.511,3.511,0,1,1-3.51-3.509,3.51,3.51,0,0,1,3.51,3.509" transform="translate(-3.125 -8.571)" fill="#fff"/>
              <path id="Path_6689" data-name="Path 6689" d="M40.578,142.572H36.8l-5.331-11.08h3.78Z" transform="translate(-2.467 -10.308)" fill="#346fa4"/>
            </g>
          </g>
        </g>
      </g>
    </g>
  </g>
</svg>
