<svg width="400" height="350" viewBox="0 0 400 350" fill="none" xmlns="http://www.w3.org/2000/svg">
  <!-- Screen/Panel -->
  <rect x="20" y="40" width="120" height="80" rx="8" stroke="#1b3028" stroke-width="2" fill="none"/>
  <rect x="35" y="55" width="15" height="15" fill="#1b3028"/>
  <rect x="60" y="58" width="60" height="4" fill="#1b3028"/>
  <rect x="60" y="68" width="40" height="4" fill="#1b3028"/>
  <rect x="60" y="78" width="50" height="4" fill="#1b3028"/>
  <rect x="60" y="88" width="35" height="4" fill="#1b3028"/>
  
  <!-- Box 1 (top right) -->
  <path d="M280 20 L350 50 L350 100 L280 130 L210 100 L210 50 Z" stroke="#1b3028" stroke-width="2" fill="none"/>
  <path d="M280 20 L280 70 M210 50 L280 70 L350 50" stroke="#1b3028" stroke-width="2"/>
  <rect x="240" y="70" width="20" height="30" fill="none" stroke="#1b3028" stroke-width="1.5">
    <animate attributeName="opacity" values="1;0.5;1" dur="2s" repeatCount="indefinite"/>
  </rect>
  <line x1="244" y1="75" x2="244" y2="95" stroke="#1b3028" stroke-width="1"/>
  <line x1="248" y1="75" x2="248" y2="95" stroke="#1b3028" stroke-width="1"/>
  <line x1="252" y1="75" x2="252" y2="95" stroke="#1b3028" stroke-width="1"/>
  <line x1="256" y1="75" x2="256" y2="95" stroke="#1b3028" stroke-width="1"/>
  
  <!-- Box 2 (middle) -->
  <path d="M260 110 L330 140 L330 190 L260 220 L190 190 L190 140 Z" stroke="#1b3028" stroke-width="2" fill="none"/>
  <path d="M260 110 L260 160 M190 140 L260 160 L330 140" stroke="#1b3028" stroke-width="2"/>
  <rect x="220" y="160" width="20" height="30" fill="none" stroke="#1b3028" stroke-width="1.5"/>
  <line x1="224" y1="165" x2="224" y2="185" stroke="#1b3028" stroke-width="1"/>
  <line x1="228" y1="165" x2="228" y2="185" stroke="#1b3028" stroke-width="1"/>
  <line x1="232" y1="165" x2="232" y2="185" stroke="#1b3028" stroke-width="1"/>
  <line x1="236" y1="165" x2="236" y2="185" stroke="#1b3028" stroke-width="1"/>
  
  <!-- Box 3 (bottom) -->
  <path d="M320 200 L380 225 L380 270 L320 295 L260 270 L260 225 Z" stroke="#1b3028" stroke-width="2" fill="none"/>
  <path d="M320 200 L320 245 M260 225 L320 245 L380 225" stroke="#1b3028" stroke-width="2"/>
  <rect x="285" y="245" width="15" height="25" fill="none" stroke="#1b3028" stroke-width="1.5"/>
  <line x1="288" y1="250" x2="288" y2="265" stroke="#1b3028" stroke-width="1"/>
  <line x1="291" y1="250" x2="291" y2="265" stroke="#1b3028" stroke-width="1"/>
  <line x1="294" y1="250" x2="294" y2="265" stroke="#1b3028" stroke-width="1"/>
  <line x1="297" y1="250" x2="297" y2="265" stroke="#1b3028" stroke-width="1"/>
  
  <!-- Woman figure -->
  <!-- Head -->
  <ellipse cx="100" cy="145" rx="18" ry="20" fill="#1b3028"/>
  <!-- Hair -->
  <path d="M82 145 Q75 120, 95 115 Q105 110, 118 125 Q122 140, 118 160 Q110 170, 100 175 Q85 175, 80 160 Q78 150, 82 145" fill="#1b3028"/>
  <!-- Body -->
  <path d="M85 165 L115 165 L120 200 L130 320 L115 320 L105 250 L95 320 L80 320 L90 200 Z" fill="#1b3028"/>
  <!-- White shirt area -->
  <path d="M88 168 L112 168 L115 195 L85 195 Z" fill="white"/>
  <!-- Arms -->
  <path d="M115 170 Q140 150, 160 140 Q165 138, 170 142" stroke="#1b3028" stroke-width="8" stroke-linecap="round" fill="none"/>
  <!-- Scanner in hand -->
  <ellipse cx="172" cy="140" rx="12" ry="8" fill="#1b3028"/>
  <!-- Scan beam -->
  <line x1="180" y1="140" x2="220" y2="155" stroke="#1b3028" stroke-width="2" stroke-dasharray="4,2">
    <animate attributeName="opacity" values="1;0.3;1" dur="1s" repeatCount="indefinite"/>
  </line>
  
  <!-- Gears -->
  <!-- Gear 1 (larger) -->
  <g transform="translate(180, 270)">
    <circle cx="0" cy="0" r="25" fill="#1b3028"/>
    <circle cx="0" cy="0" r="8" fill="#e8ebe5"/>
    <path d="M0 -30 L5 -25 L5 -35 L0 -30 M0 30 L5 25 L5 35 L0 30 M-30 0 L-25 5 L-35 5 L-30 0 M30 0 L25 5 L35 5 L30 0" fill="#1b3028"/>
    <rect x="-5" y="-32" width="10" height="7" fill="#1b3028"/>
    <rect x="-5" y="25" width="10" height="7" fill="#1b3028"/>
    <rect x="-32" y="-5" width="7" height="10" fill="#1b3028"/>
    <rect x="25" y="-5" width="7" height="10" fill="#1b3028"/>
    <rect x="15" y="-28" width="10" height="7" transform="rotate(45)" fill="#1b3028"/>
    <rect x="-25" y="18" width="10" height="7" transform="rotate(45)" fill="#1b3028"/>
    <rect x="18" y="15" width="10" height="7" transform="rotate(-45)" fill="#1b3028"/>
    <rect x="-28" y="-25" width="10" height="7" transform="rotate(-45)" fill="#1b3028"/>
  </g>
  
  <!-- Gear 2 (smaller) -->
  <g transform="translate(225, 295)">
    <circle cx="0" cy="0" r="18" fill="#1b3028"/>
    <circle cx="0" cy="0" r="6" fill="#e8ebe5"/>
    <rect x="-4" y="-23" width="8" height="6" fill="#1b3028"/>
    <rect x="-4" y="17" width="8" height="6" fill="#1b3028"/>
    <rect x="-23" y="-4" width="6" height="8" fill="#1b3028"/>
    <rect x="17" y="-4" width="6" height="8" fill="#1b3028"/>
  </g>
  
  <!-- Small circle -->
  <circle cx="145" cy="295" r="6" stroke="#1b3028" stroke-width="2" fill="none"/>
  
  <!-- Conveyor belt curve -->
  <path d="M250 320 Q320 310, 380 340" stroke="#1b3028" stroke-width="2" fill="none"/>
</svg>

