<svg xmlns="http://www.w3.org/2000/svg" width="48" height="48" viewBox="0 0 48 48"><g transform="translate(-797 -1194)"><circle cx="24" cy="24" r="24" transform="translate(797 1194)"/><path d="M14.258,33.03a1.2,1.2,0,0,1-.772-1.006,1.058,1.058,0,0,1,1.065-1.159c.953-.031,1.908-.027,2.862,0a1.049,1.049,0,0,1,1.04.882,1.071,1.071,0,0,1-.675,1.215.758.758,0,0,0-.1.068ZM13.239,30.57a1.093,1.093,0,1,1,.012-2.179c.913,0,1.826,0,2.739,0h.856c.649,0,1.3,0,1.948,0a1.08,1.08,0,0,1,1.072.852,1.058,1.058,0,0,1-.618,1.217,1.433,1.433,0,0,1-.53.1q-1.553.006-3.106.006ZM18.3,28.112c-.264-.012-.547-.017-.889-.017-.238,0-.481,0-.715.005h0c-.235,0-.478.005-.716.005l-.795,0h0l-.795,0c-.394,0-.719,0-1.022.01h-.044a1.536,1.536,0,0,1-.573-.1,1.1,1.1,0,0,1-.418-.288,1.035,1.035,0,0,1-.222-.4,1.308,1.308,0,0,1-.038-.512,4.241,4.241,0,0,0-.343-2.223,6.076,6.076,0,0,0-.54-.97,10.409,10.409,0,0,0-.7-.913l-.08-.094a20.113,20.113,0,0,1-1.766-2.3,7.729,7.729,0,0,1-.945-2.264,8.5,8.5,0,0,1-.227-2.447,8.684,8.684,0,0,1,.471-2.419,8.115,8.115,0,0,1,1.15-2.181,9.693,9.693,0,0,1,1.054-1.2,8.423,8.423,0,0,1,1.207-.965,8,8,0,0,1,1.363-.717,8.422,8.422,0,0,1,1.522-.457,9.543,9.543,0,0,1,1.874-.193,8.252,8.252,0,0,1,1.481.132,7.914,7.914,0,0,1,1.414.4,8.337,8.337,0,0,1,1.343.663,9.564,9.564,0,0,1,1.269.93,8.887,8.887,0,0,1,1.121,1.159,8.023,8.023,0,0,1,1.44,2.748,8.9,8.9,0,0,1,.315,1.577,9.022,9.022,0,0,1,.025,1.725,8.148,8.148,0,0,1-.307,1.634,8.241,8.241,0,0,1-.635,1.54,9.3,9.3,0,0,1-.96,1.442c-.219.272-.444.547-.662.813h0c-.338.413-.687.839-1.023,1.265a5.914,5.914,0,0,0-.47.685,4.537,4.537,0,0,0-.344.729,3.826,3.826,0,0,0-.222,1.619,1.579,1.579,0,0,1-.29,1.233,1.031,1.031,0,0,1-.467.281,2.235,2.235,0,0,1-.661.084C18.418,28.116,18.357,28.115,18.3,28.112ZM14.537,9.8l-.016,0a6.564,6.564,0,0,0-2.051.9,6.348,6.348,0,0,0-1.552,9.124c.337.453.7.9,1.057,1.323.313.378.637.769.939,1.166A7.015,7.015,0,0,1,13.7,23.6a5.8,5.8,0,0,1,.456,1.441,5.581,5.581,0,0,1,.06.588c.006.088.012.18.02.27h3.5a4.97,4.97,0,0,1,.112-1.025,5.363,5.363,0,0,1,.3-.944,7.966,7.966,0,0,1,1.021-1.707c.364-.48.753-.955,1.128-1.414.207-.252.42-.513.627-.772a7.247,7.247,0,0,0,.63-.922A6.314,6.314,0,0,0,22,18.15a5.983,5.983,0,0,0,.272-1.017,6.213,6.213,0,0,0,.091-1.065,7.053,7.053,0,0,0-.092-1.123l-.006-.036a6.188,6.188,0,0,0-.774-2.126,6.435,6.435,0,0,0-5.487-3.157h0A6.155,6.155,0,0,0,14.537,9.8ZM25.825,27.351c-.919-.888-1.819-1.8-2.712-2.711a1,1,0,0,1-.179-1.166,1.145,1.145,0,0,1,1.114-.649,2.3,2.3,0,0,1,.628.341c.9.863,1.777,1.747,2.648,2.639a1.089,1.089,0,0,1-.769,1.848A1.043,1.043,0,0,1,25.825,27.351ZM4.671,27.318A1.079,1.079,0,0,1,4.7,25.782q1.3-1.323,2.621-2.62a1.021,1.021,0,0,1,1.215-.223A1.128,1.128,0,0,1,9.169,24.1a2.377,2.377,0,0,1-.348.606c-.849.883-1.717,1.747-2.593,2.6a1.135,1.135,0,0,1-.794.34A1.06,1.06,0,0,1,4.671,27.318ZM2.927,17.092c-.6,0-1.2,0-1.8,0A1.067,1.067,0,0,1,0,16.083a1.047,1.047,0,0,1,1.034-1.157q1.9-.044,3.8,0a1.049,1.049,0,0,1,1.044,1.12,1.068,1.068,0,0,1-1.117,1.047q-.36,0-.719,0Zm26.137,0c-.6,0-1.2,0-1.8,0a1.087,1.087,0,1,1-.056-2.172q1.853-.029,3.706,0a1.087,1.087,0,1,1-.04,2.172q-.352,0-.7,0ZM7.335,8.858C6.437,8,5.557,7.114,4.688,6.221A1.081,1.081,0,1,1,6.236,4.713Q7.544,6,8.833,7.309a1.035,1.035,0,0,1,.24,1.213,1.2,1.2,0,0,1-1.026.714A2.931,2.931,0,0,1,7.335,8.858Zm15.6-.317a1.029,1.029,0,0,1,.218-1.216c.616-.629,1.243-1.248,1.865-1.87.258-.258.51-.523.777-.772a1.079,1.079,0,0,1,1.51-.008,1.053,1.053,0,0,1,.04,1.505q-1.332,1.377-2.713,2.707a2.606,2.606,0,0,1-.695.347A1.2,1.2,0,0,1,22.935,8.541ZM16,5.895a1.1,1.1,0,0,1-1.085-1.188c0-.591,0-1.182,0-1.773s0-1.182,0-1.773a1.092,1.092,0,1,1,2.179.009q.007,1.773,0,3.546A1.1,1.1,0,0,1,16,5.895Z" transform="translate(805 1201.029)" fill="#fff" stroke="rgba(0,0,0,0)" stroke-miterlimit="10" stroke-width="1"/></g></svg>