<?xml version="1.0" encoding="UTF-8"?>
<svg id="Layer_2" data-name="Layer 2" xmlns="http://www.w3.org/2000/svg" viewBox="0 0 84.24 37.37">
  <defs>
    <style>
      .cls-1 {
        fill: #050505;
      }
    </style>
  </defs>
  <g id="Layer_1-2" data-name="Layer 1">
    <g>
      <g>
        <path d="m39.7,23.35l-3.62-8.43h2.05l3.11,7.44h-1.01l3.22-7.44h1.9l-3.62,8.43h-2.04Z"/>
        <path d="m46.77,23.35v-11.05h5.18c1.33,0,2.34.26,3.03.78.7.52,1.04,1.22,1.04,2.09,0,.59-.14,1.09-.41,1.51s-.64.74-1.1.96c-.46.23-.96.34-1.49.34l.28-.57c.62,0,1.18.11,1.67.34.5.23.89.56,1.18.99.29.43.43.97.43,1.61,0,.95-.36,1.68-1.09,2.21-.73.53-1.81.79-3.24.79h-5.49Zm2.05-1.61h3.32c.77,0,1.36-.13,1.77-.38.41-.25.62-.66.62-1.22s-.21-.95-.62-1.21c-.41-.26-1-.39-1.77-.39h-3.47v-1.59h3.06c.71,0,1.27-.13,1.65-.38s.58-.63.58-1.14-.19-.9-.58-1.15c-.38-.25-.93-.38-1.65-.38h-2.91v7.83Z"/>
        <path d="m61.14,23.46c-.63,0-1.18-.11-1.66-.32s-.84-.52-1.1-.9c-.26-.38-.39-.82-.39-1.3s.11-.9.34-1.28.6-.68,1.11-.9,1.2-.33,2.05-.33h2.45v1.31h-2.31c-.67,0-1.13.11-1.36.32s-.35.48-.35.8c0,.36.14.64.43.85.28.21.68.32,1.18.32s.92-.11,1.3-.33c.38-.22.66-.55.83-.98l.33,1.18c-.19.49-.53.88-1.02,1.15-.49.27-1.11.41-1.86.41Zm2.65-.11v-1.71l-.11-.36v-2.98c0-.58-.17-1.03-.52-1.35-.35-.32-.87-.48-1.58-.48-.47,0-.94.07-1.4.22s-.84.35-1.16.62l-.77-1.44c.45-.35.99-.61,1.62-.78s1.28-.26,1.95-.26c1.22,0,2.17.29,2.83.88.67.58,1,1.49,1,2.71v4.94h-1.86Z"/>
        <path d="m70.79,23.46c-.71,0-1.38-.09-2.03-.28-.65-.18-1.16-.41-1.54-.67l.76-1.5c.38.24.83.44,1.36.6.53.16,1.05.24,1.58.24.62,0,1.07-.08,1.35-.25.28-.17.42-.39.42-.68,0-.23-.09-.41-.28-.53-.19-.12-.44-.21-.74-.28-.31-.06-.65-.12-1.02-.17-.37-.05-.75-.12-1.12-.21-.37-.09-.71-.22-1.02-.39s-.55-.41-.74-.7-.28-.68-.28-1.17c0-.54.15-1,.46-1.4.31-.39.73-.7,1.29-.92s1.21-.32,1.97-.32c.57,0,1.14.06,1.72.19.58.13,1.06.31,1.44.54l-.76,1.5c-.4-.24-.8-.41-1.21-.5-.41-.09-.81-.13-1.21-.13-.6,0-1.04.09-1.33.27-.29.18-.43.41-.43.68,0,.25.09.44.28.57.19.13.44.23.74.3.3.07.64.13,1.02.18.37.05.75.12,1.11.21.37.09.71.22,1.02.39s.56.39.75.69c.19.29.28.68.28,1.15,0,.53-.16.98-.47,1.37s-.75.69-1.32.91-1.25.32-2.04.32Z"/>
        <path d="m80.28,23.46c-.94,0-1.75-.19-2.46-.56-.7-.37-1.24-.89-1.63-1.54-.38-.65-.58-1.39-.58-2.23s.19-1.59.56-2.23c.37-.65.89-1.15,1.55-1.52.66-.37,1.41-.55,2.25-.55s1.55.18,2.19.54c.64.36,1.15.86,1.52,1.52.37.65.55,1.42.55,2.31,0,.08,0,.18,0,.28s-.01.21-.02.3h-7.03v-1.31h5.98l-.77.41c0-.48-.09-.91-.3-1.28-.21-.37-.5-.66-.86-.87-.36-.21-.78-.32-1.25-.32s-.91.11-1.27.32c-.36.21-.65.5-.85.88-.21.37-.31.81-.31,1.32v.32c0,.51.12.95.35,1.34.23.39.56.69.98.9.42.21.91.32,1.45.32.47,0,.9-.07,1.28-.22s.72-.38,1.01-.69l1.06,1.22c-.38.44-.86.78-1.43,1.02-.57.24-1.23.36-1.97.36Z"/>
      </g>
      <path class="cls-1" d="m24.35,18.74c-2.41,3.73-4.93,8.05-6.94,12.29-.21.45-.66.74-1.15.75l-2.31.06c-.28,0-.53-.1-.72-.3-1.12-1.2-5.75-5.92-8.34-8.35-.22-.21-.24-.56-.03-.78,2.01-2.12,4.01-1.66,5.55-.11,1.33,1.34,3.24,3.13,4.33,4.27,4.34-8.02,8.11-13.87,11.04-17.63.9-1.15,1-2.76.21-3.99-.55-.86-1.28-1.63-2.19-2.31-2.35-1.76-5.77-2.65-10.25-2.65H1.35C.61,0,0,.61,0,1.35v34.44c0,.87.71,1.58,1.58,1.58h13.04c4.84,0,8.49-.89,10.95-2.67,2.45-1.78,3.68-4.27,3.68-7.48,0-2.17-.49-3.99-1.47-5.45-.87-1.29-2.02-2.29-3.43-3.04Z"/>
    </g>
  </g>
</svg>