<svg xmlns="http://www.w3.org/2000/svg" width="40.737" height="40.732" viewBox="0 0 40.737 40.732">
  <g id="Group_467" data-name="Group 467" transform="translate(-471 -1134.164)">
    <path id="Path_6608" data-name="Path 6608" d="M0,3.6c.034-.13.07-.259.1-.389A2.345,2.345,0,0,1,2.131,1.4a17.419,17.419,0,0,1,2.892,0,2.323,2.323,0,0,1,2.1,2.365q.023,3.677,0,7.354a2.375,2.375,0,0,1-2.193,2.5,13.515,13.515,0,0,1-2.691,0A2.365,2.365,0,0,1,.072,11.56,1.247,1.247,0,0,0,0,11.371V3.6M1.45,7.5h0c0,1.213-.009,2.425,0,3.638a1,1,0,0,0,1.027,1.084c.734.03,1.472.03,2.206,0A1.032,1.032,0,0,0,5.728,11.1q.007-3.617,0-7.235a1.034,1.034,0,0,0-1.1-1.1c-.654-.011-1.308-.007-1.962,0-.845.005-1.211.372-1.215,1.225-.005,1.172,0,2.343,0,3.515" transform="translate(471 1132.843)" fill="#fff"/>
    <path id="Path_6609" data-name="Path 6609" d="M0,349.6c.042-.156.082-.313.126-.468a2.418,2.418,0,0,1,2.235-1.8,16.926,16.926,0,0,1,2.772.066,2.3,2.3,0,0,1,1.986,2.339q.023,3.7,0,7.4a2.4,2.4,0,0,1-2.073,2.45.584.584,0,0,0-.14.072H2.291a1.6,1.6,0,0,0-.223-.079A2.436,2.436,0,0,1,.115,357.8c-.044-.14-.077-.283-.115-.425V349.6m1.451,3.89c0,1.2-.008,2.4,0,3.6a1.022,1.022,0,0,0,1.111,1.125c.667.016,1.335.015,2,0a1.066,1.066,0,0,0,1.162-1.211q0-3.515,0-7.031A1.089,1.089,0,0,0,4.5,348.741q-.919-.014-1.839,0c-.839.013-1.21.392-1.214,1.239-.005,1.172,0,2.343,0,3.515" transform="translate(471 815.228)" fill="#fff"/>
    <path id="Path_6610" data-name="Path 6610" d="M241.974,359.745c-.154-.044-.309-.087-.463-.132a2.44,2.44,0,0,1-1.8-2.4q-.029-3.638,0-7.277a2.468,2.468,0,0,1,2.58-2.531,18.911,18.911,0,0,1,2.526.079,2.315,2.315,0,0,1,1.983,2.343q.022,3.7,0,7.4a2.4,2.4,0,0,1-2.072,2.45.583.583,0,0,0-.14.072Zm-.84-6.172c0,1.2-.008,2.4,0,3.6a1.023,1.023,0,0,0,1.113,1.123c.667.016,1.335.015,2,0a1.066,1.066,0,0,0,1.16-1.213q0-3.515,0-7.03a1.089,1.089,0,0,0-1.228-1.235c-.586-.009-1.172-.005-1.758,0-.926.006-1.291.367-1.294,1.283,0,1.158,0,2.316,0,3.474" transform="translate(250.954 815.151)" fill="#fff"/>
    <path id="Path_6611" data-name="Path 6611" d="M0,175.009a2.252,2.252,0,0,1,.477-.519.65.65,0,0,1,.913.415,1.494,1.494,0,0,1,.057.441q0,5.226,0,10.452c0,.635-.328,1.024-.815.887-.243-.069-.424-.359-.633-.549V175.009" transform="translate(471 973.951)" fill="#fff"/>
    <path id="Path_6612" data-name="Path 6612" d="M479.893,359.813a.929.929,0,0,1-.637-1.008c.01-3.445.005-6.891.005-10.336,0-.082,0-.164,0-.245a.711.711,0,1,1,1.419,0c.008.095,0,.19,0,.286,0,3.418-.006,6.836.006,10.254a.952.952,0,0,1-.637,1.05Z" transform="translate(31.035 815.084)" fill="#fff"/>
    <path id="Path_6613" data-name="Path 6613" d="M155.354,359.8a.926.926,0,0,1-.654-1.034c.013-3.431.007-6.863.007-10.295,0-.027,0-.054,0-.082,0-.574.261-.918.7-.931s.716.333.716.941q0,3.452,0,6.9c0,1.157-.017,2.315.008,3.472a.934.934,0,0,1-.61,1.024Z" transform="translate(328.982 815.094)" fill="#fff"/>
    <path id="Path_6614" data-name="Path 6614" d="M394.873,359.8a.926.926,0,0,1-.654-1.034c.013-3.431.007-6.863.007-10.295,0-.027,0-.054,0-.082,0-.574.261-.918.7-.931s.716.333.716.941q0,3.452,0,6.9c0,1.157-.017,2.315.008,3.472a.934.934,0,0,1-.61,1.024Z" transform="translate(109.1 815.094)" fill="#fff"/>
    <path id="Path_6615" data-name="Path 6615" d="M410.063,180.69c0-1.172-.005-2.344,0-3.516a2.427,2.427,0,0,1,2.581-2.58q.981,0,1.962,0a2.421,2.421,0,0,1,2.546,2.461q.051,3.679,0,7.359a2.42,2.42,0,0,1-2.549,2.458c-.722,0-1.445.007-2.167,0a2.4,2.4,0,0,1-2.365-2.335c-.02-1.281,0-2.562,0-3.843h-.005m5.675.065c0-1.213.009-2.427,0-3.64a1.051,1.051,0,0,0-1.16-1.129c-.654,0-1.309-.006-1.963,0a1.068,1.068,0,0,0-1.152,1.144q-.007,3.6,0,7.2a1.069,1.069,0,0,0,1.147,1.15c.627.007,1.254,0,1.881,0a1.088,1.088,0,0,0,1.25-1.248c.005-1.159,0-2.317,0-3.476" transform="translate(94.557 973.791)" fill="#fff"/>
    <path id="Path_6616" data-name="Path 6616" d="M342.315,7.32c0-1.2,0-2.4,0-3.6a2.384,2.384,0,0,1,2.2-2.5,15.3,15.3,0,0,1,2.773.013,2.357,2.357,0,0,1,2.129,2.354q.038,3.741,0,7.483a2.346,2.346,0,0,1-2.121,2.362,13.984,13.984,0,0,1-3.012-.028,2.335,2.335,0,0,1-1.965-2.324c-.01-1.254,0-2.508,0-3.762m1.393.011c0,1.172,0,2.344,0,3.516a1.093,1.093,0,0,0,1.2,1.23c.545.013,1.09,0,1.635,0,1.134,0,1.469-.331,1.47-1.452q0-3.291,0-6.582A3.956,3.956,0,0,0,348,3.6a1.018,1.018,0,0,0-1.08-.992c-.654-.011-1.308-.006-1.962,0a1.092,1.092,0,0,0-1.247,1.253c0,1.158,0,2.316,0,3.475" transform="translate(156.751 1133)" fill="#fff"/>
    <path id="Path_6617" data-name="Path 6617" d="M212.283,7.5c0,1.145-.03,2.29.007,3.434a2.535,2.535,0,0,1-2.723,2.724c-.8-.036-1.613.018-2.4-.088a2.311,2.311,0,0,1-1.951-2.159c-.037-.57-.024-1.144-.025-1.716,0-1.894-.006-3.788,0-5.683a2.473,2.473,0,0,1,2.674-2.673,22.771,22.771,0,0,1,2.366.062,2.293,2.293,0,0,1,2.024,2.176c.045,1.306.011,2.616.011,3.924h.02m-1.413-.016c0-1.2,0-2.4,0-3.6a1.024,1.024,0,0,0-1.113-1.122q-1.022-.014-2.044,0A1.022,1.022,0,0,0,206.6,3.886q-.006,3.6,0,7.193a1.036,1.036,0,0,0,1.092,1.15c.694.024,1.39.024,2.084,0a1.038,1.038,0,0,0,1.092-1.151c0-1.2,0-2.4,0-3.6" transform="translate(282.638 1132.843)" fill="#fff"/>
    <path id="Path_6618" data-name="Path 6618" d="M255.489,180.7c0-1.2,0-2.4,0-3.6a2.435,2.435,0,0,1,2.523-2.521c.7,0,1.39-.006,2.085,0a2.433,2.433,0,0,1,2.492,2.436q.034,3.7,0,7.4a2.435,2.435,0,0,1-2.49,2.439c-.736.006-1.472.008-2.208,0a2.43,2.43,0,0,1-2.4-2.435c-.007-1.24,0-2.481,0-3.721m1.392-.022c0,1.2-.007,2.4,0,3.6a1.094,1.094,0,0,0,1.2,1.189c.586,0,1.172,0,1.758,0,.96,0,1.339-.373,1.342-1.332,0-1.349,0-2.7,0-4.048,0-.968.01-1.936,0-2.9a1.087,1.087,0,0,0-1.215-1.21c-.6,0-1.2,0-1.8,0a1.121,1.121,0,0,0-1.284,1.27c0,1.145,0,2.29,0,3.435" transform="translate(236.459 973.802)" fill="#fff"/>
    <path id="Path_6619" data-name="Path 6619" d="M479.306,7.636q0-2.554,0-5.107a2.379,2.379,0,0,1,.039-.486.688.688,0,0,1,1.344,0,2.093,2.093,0,0,1,.04.445q0,5.169,0,10.338a1.986,1.986,0,0,1-.034.4.689.689,0,0,1-1.355,0,2.331,2.331,0,0,1-.034-.446q0-2.574,0-5.148" transform="translate(30.989 1132.692)" fill="#fff"/>
    <path id="Path_6620" data-name="Path 6620" d="M139.051,7.532c0,1.784,0,3.568,0,5.352,0,.632-.549,1.024-1.02.706a.892.892,0,0,1-.355-.625c-.022-3.609-.017-7.218-.014-10.826a.7.7,0,0,1,.691-.749.716.716,0,0,1,.7.79q.006,2.676,0,5.352" transform="translate(344.628 1132.793)" fill="#fff"/>
    <path id="Path_6621" data-name="Path 6621" d="M171.971,180.658c0,1.77,0,3.54,0,5.31a1.2,1.2,0,0,1-.1.51.687.687,0,0,1-1.286-.253,2.411,2.411,0,0,1-.008-.245q0-5.29,0-10.58c0-.493.184-.768.543-.835a.705.705,0,0,1,.849.782c0,1.77,0,3.54,0,5.31" transform="translate(314.408 973.829)" fill="#fff"/>
    <path id="Path_6622" data-name="Path 6622" d="M85.429,180.61c0-1.746,0-3.491,0-5.236,0-.386.091-.711.5-.841a.7.7,0,0,1,.886.512,1.278,1.278,0,0,1,.03.324q0,5.277,0,10.555c0,.469-.2.777-.545.853a.681.681,0,0,1-.856-.684c-.023-.531-.01-1.063-.01-1.6q0-1.943,0-3.886" transform="translate(392.577 973.876)" fill="#fff"/>
  </g>
</svg>
