<svg xmlns="http://www.w3.org/2000/svg" width="40.3" height="40.296" viewBox="0 0 40.3 40.296">
  <g id="Group_468" data-name="Group 468" transform="translate(-349.611 -142.94)">
    <g id="Group_465" data-name="Group 465" transform="translate(349.611 142.94)">
      <g id="Group_466" data-name="Group 466" transform="translate(0 0)">
        <path id="Path_6599" data-name="Path 6599" d="M0,1.395c.023-.017.055-.03.068-.053A.7.7,0,0,1,.944.982a.737.737,0,0,1,.5.811c-.009,1.933,0,3.867,0,5.8V39.8h.593q18.621,0,37.243,0a1.707,1.707,0,0,1,.574.054c.6.22.6.885,0,1.381H0V1.395" transform="translate(0 -0.94)" fill="#fff"/>
        <path id="Path_6600" data-name="Path 6600" d="M355.631,145.345a4.315,4.315,0,1,1,4.337-4.283,4.305,4.305,0,0,1-4.337,4.283m.006-1.438a2.877,2.877,0,1,0-2.862-2.916,2.915,2.915,0,0,0,2.862,2.916" transform="translate(-319.668 -124.476)" fill="#fff"/>
        <path id="Path_6601" data-name="Path 6601" d="M304.076,21.315a4.316,4.316,0,1,1-4.286-4.333,4.305,4.305,0,0,1,4.286,4.333m-4.31-2.9a2.877,2.877,0,1,0,2.871,2.906,2.913,2.913,0,0,0-2.871-2.906" transform="translate(-268.814 -15.536)" fill="#fff"/>
        <path id="Path_6602" data-name="Path 6602" d="M140.094,104.786a4.315,4.315,0,1,1-4.337,4.282,4.3,4.3,0,0,1,4.337-4.282m2.857,4.32a2.878,2.878,0,1,0-2.861,2.872,2.912,2.912,0,0,0,2.861-2.872" transform="translate(-123.52 -95.426)" fill="#fff"/>
        <path id="Path_6603" data-name="Path 6603" d="M243.844,177.274A4.315,4.315,0,1,1,248.186,173a4.306,4.306,0,0,1-4.342,4.278m.01-7.192a2.877,2.877,0,1,0,2.894,2.884,2.912,2.912,0,0,0-2.894-2.884" transform="translate(-217.962 -153.528)" fill="#fff"/>
        <path id="Path_6604" data-name="Path 6604" d="M128.42,220.874a4.316,4.316,0,1,1-4.283-4.337,4.306,4.306,0,0,1,4.283,4.337m-4.3-2.9a2.877,2.877,0,1,0,2.857,2.92,2.911,2.911,0,0,0-2.857-2.92" transform="translate(-108.99 -197.104)" fill="#fff"/>
        <path id="Path_6605" data-name="Path 6605" d="M315.708,273.06a4.315,4.315,0,1,1,4.337-4.283,4.305,4.305,0,0,1-4.337,4.283m2.9-4.3a2.878,2.878,0,1,0-2.869,2.864,2.913,2.913,0,0,0,2.869-2.864" transform="translate(-283.344 -240.68)" fill="#fff"/>
        <path id="Path_6606" data-name="Path 6606" d="M44.242,320.954a4.315,4.315,0,1,1,4.333-4.287,4.307,4.307,0,0,1-4.333,4.287m2.895-4.31a2.878,2.878,0,1,0-2.906,2.872,2.913,2.913,0,0,0,2.906-2.872" transform="translate(-36.343 -284.257)" fill="#fff"/>
        <path id="Path_6607" data-name="Path 6607" d="M208.263,316.625a4.316,4.316,0,1,1-4.319-4.3,4.3,4.3,0,0,1,4.319,4.3m-1.438-.007a2.878,2.878,0,1,0-2.879,2.9,2.913,2.913,0,0,0,2.879-2.9" transform="translate(-181.637 -284.257)" fill="#fff"/>
      </g>
    </g>
  </g>
</svg>
