<svg viewBox="0 0 645 292" fill="none" xmlns="http://www.w3.org/2000/svg" alt="All Ears" width="135"><path d="M112.958 0.905029C50.7647 0.905029 0.563477 51.1365 0.563477 112.81C0.563477 136.809 8.65145 161.088 23.154 180.343C20.3651 188.994 18.9706 197.924 18.9706 206.017C18.9706 253.179 56.9004 291.132 104.034 291.132C133.597 291.132 161.207 276.062 177.383 250.946L191.328 228.342C216.986 185.087 227.863 151.879 227.863 116.996C227.305 51.6947 177.104 0.905029 112.958 0.905029Z" fill="#DBB3D1"></path><path d="M112.958 24.9044C64.1515 24.9044 24.5484 63.9734 24.5484 112.81C24.5484 136.809 34.3097 159.413 50.7645 175.599C45.4655 185.645 42.6766 196.529 42.6766 206.017C42.6766 240.342 70.0083 267.132 103.755 267.132C125.23 267.132 145.031 256.527 156.745 238.109L170.132 216.063C194.117 175.32 203.32 147.972 203.32 116.996C203.32 65.0896 164.275 24.9044 112.958 24.9044Z" fill="#458BBE"></path><path d="M112.959 49.1832C77.5388 49.1832 48.8126 77.6478 48.8126 112.81C48.8126 136.809 62.1995 158.297 82.5589 169.181C79.77 173.925 77.2599 178.39 75.5865 180.901C70.8453 188.994 66.9408 197.087 66.9408 206.017C66.9408 226.947 83.1167 242.854 103.755 242.854C117.142 242.854 128.856 236.435 136.386 225.273L149.215 203.785C171.805 165.832 179.057 143.786 179.057 116.996C179.336 78.4849 150.888 49.1832 112.959 49.1832Z" fill="#69378C"></path><path d="M155.072 116.996C155.072 88.5311 134.155 73.1826 112.68 73.1826C90.6469 73.1826 72.5187 90.7636 72.5187 112.81C72.5187 134.856 90.6469 152.995 112.68 152.995H116.863C109.054 171.692 95.1092 194.296 94.2725 196.529C92.5991 199.32 90.9258 203.505 90.9258 206.296C90.9258 213.831 96.2248 219.133 103.755 219.133C108.496 219.133 112.959 216.901 116.026 212.156C120.768 204.622 124.672 198.203 128.298 191.785C149.215 156.344 155.072 139.6 155.072 116.996Z" fill="white"></path><path d="M273.044 114.205C273.044 84.3452 292.009 68.9967 314.042 68.9967C327.708 68.9967 336.912 74.578 342.211 83.508H342.489V71.7873H370.379V156.902H342.489V145.181H342.211C336.912 153.832 327.987 159.413 314.042 159.413C292.009 159.413 273.044 144.065 273.044 114.205ZM341.932 114.205C341.932 101.926 333.007 94.3915 321.851 94.3915C310.695 94.3915 302.329 102.205 302.329 114.205C302.329 126.484 310.695 134.019 321.851 134.019C333.007 134.019 341.932 126.205 341.932 114.205Z" fill="black"></path><path d="M417.791 27.6952H389.065V156.623H417.791V27.6952Z" fill="black"></path><path d="M463.809 27.6952H435.362V156.623H463.809V27.6952Z" fill="black"></path><path d="M357.55 222.203V228.342H298.703C300.655 238.947 309.022 243.691 320.457 243.691C329.939 243.691 338.585 240.063 343.884 236.714L354.203 257.644C343.884 263.783 332.17 267.132 319.899 267.132C291.451 267.132 272.487 249.272 272.487 222.203C272.487 193.459 291.173 176.715 317.389 176.715C343.047 176.436 357.55 193.459 357.55 222.203ZM298.982 211.877H332.17C331.891 201.831 325.756 196.25 316.831 196.25C307.348 196.25 300.376 200.994 298.982 211.877Z" fill="black"></path><path d="M368.706 221.645C368.706 191.785 385.718 176.436 408.03 176.436C421.696 176.436 430.341 182.018 435.919 190.669H436.198V178.948H464.088V264.062H436.198V252.342H435.919C430.62 260.993 421.975 266.574 408.03 266.574C385.997 267.132 368.706 251.504 368.706 221.645ZM435.362 221.645C435.362 209.366 426.995 201.831 415.56 201.831C404.404 201.831 396.316 209.645 396.316 221.645C396.316 233.923 404.404 241.458 415.56 241.458C426.995 241.737 435.362 233.923 435.362 221.645Z" fill="black"></path><path d="M536.879 204.343H534.369C515.683 204.343 508.153 211.04 508.153 232.807V264.062H480.264V179.227H507.595V196.529H507.874C512.894 182.576 522.656 176.715 536.043 176.715H536.601V204.343H536.879Z" fill="black"></path><path d="M542.457 258.202L553.055 235.319C562.259 240.621 572.857 245.086 583.176 245.086C588.196 245.086 590.985 243.97 590.985 241.179C590.985 237.83 587.638 237.272 585.128 236.156L570.347 230.296C556.402 224.993 549.43 216.621 549.43 204.064C549.43 186.483 561.422 176.436 585.965 176.436C596.284 176.436 606.882 178.39 616.644 181.459L608.835 204.064C599.91 200.436 590.427 197.924 583.734 197.924C578.156 197.924 577.04 199.32 577.04 201.552C577.04 204.064 579.272 205.18 583.455 206.854L598.236 212.436C611.066 217.18 618.875 224.156 618.875 238.388C618.875 258.76 604.093 267.132 581.224 267.132C569.51 267.132 555.287 264.62 542.457 258.202Z" fill="black"></path><path d="M634.802 198.216C629.425 198.216 625.041 193.898 625.041 188.6C625.041 183.303 629.425 178.984 634.802 178.984C640.18 178.984 644.563 183.303 644.563 188.6C644.563 193.898 640.18 198.216 634.802 198.216ZM634.802 180.398C630.213 180.398 626.492 184.064 626.492 188.585C626.492 193.105 630.213 196.772 634.802 196.772C639.391 196.772 643.113 193.105 643.113 188.585C643.113 184.064 639.391 180.398 634.802 180.398Z" fill="black"></path><path d="M635.816 184.13C636.675 184.13 637.346 184.333 637.827 184.756C638.308 185.18 638.549 185.739 638.549 186.467C638.549 187.008 638.429 187.482 638.171 187.889C637.913 188.295 637.518 188.583 636.985 188.719V188.735C637.243 188.786 637.449 188.871 637.621 188.989C637.793 189.108 637.913 189.243 638.016 189.413C638.119 189.582 638.188 189.751 638.24 189.955C638.291 190.158 638.325 190.361 638.343 190.581C638.36 190.801 638.377 191.021 638.377 191.241C638.394 191.461 638.411 191.682 638.446 191.902C638.48 192.122 638.532 192.325 638.583 192.511C638.652 192.697 638.738 192.884 638.875 193.019H637.535C637.449 192.935 637.397 192.799 637.363 192.647C637.329 192.494 637.311 192.308 637.311 192.122C637.294 191.936 637.294 191.715 637.294 191.495C637.294 191.275 637.26 191.055 637.225 190.835C637.191 190.615 637.157 190.412 637.105 190.225C637.054 190.039 636.968 189.853 636.865 189.717C636.761 189.582 636.607 189.463 636.435 189.379C636.263 189.294 636.022 189.243 635.73 189.243H632.808V193.036H631.605V184.147H635.816V184.13ZM636.057 188.177C636.315 188.126 636.521 188.058 636.727 187.94C636.916 187.821 637.071 187.652 637.174 187.449C637.294 187.245 637.346 186.975 637.346 186.653C637.346 186.196 637.225 185.84 636.968 185.552C636.71 185.264 636.297 185.129 635.747 185.129H632.774V188.227H635.283C635.541 188.244 635.816 188.227 636.057 188.177Z" fill="black"></path></svg>