<svg width="158px" height="24px" viewBox="0 0 577 88" fill="none" xmlns="http://www.w3.org/2000/svg" class="" style="">
  <g clippath="url(#clip0_3335_2191)">
    <path d="M576.7 55.8499C576.7 57.4463 576.339 58.7951 575.617 59.8961C575.117 60.6117 574.228 61.6302 572.951 62.9514C571.673 64.2726 570.673 65.1534 569.951 65.5938C568.563 66.4746 567.118 66.915 565.619 66.915H552.454C551.01 66.915 549.594 66.4746 548.205 65.5938C547.483 65.1534 546.455 64.2726 545.122 62.9514C543.845 61.6302 542.956 60.6117 542.456 59.8961C541.789 58.8501 541.456 57.5014 541.456 55.8499V27.7742C541.456 26.1227 541.789 24.774 542.456 23.728C542.956 23.0124 543.845 21.9939 545.122 20.6727C546.455 19.2965 547.483 18.3881 548.205 17.9477C549.594 17.0669 551.01 16.6265 552.454 16.6265H565.619C567.118 16.6265 568.563 17.0669 569.951 17.9477C570.673 18.3881 571.673 19.2689 572.951 20.5901C574.228 21.9114 575.117 22.9573 575.617 23.728C576.339 24.829 576.7 26.1778 576.7 27.7742V55.8499ZM571.867 55.7673V27.9394C571.867 27.4439 571.784 27.031 571.618 26.7007C571.118 25.7649 570.284 24.7464 569.118 23.6454C568.007 22.5444 567.091 21.8288 566.368 21.4985C566.091 21.3333 565.73 21.2507 565.285 21.2507H552.871C552.371 21.2507 552.01 21.3333 551.788 21.4985C551.121 21.8288 550.205 22.5444 549.038 23.6454C547.927 24.7464 547.122 25.7649 546.622 26.7007C546.4 27.1411 546.289 27.554 546.289 27.9394V55.7673C546.289 56.0426 546.4 56.4004 546.622 56.8408C547.122 57.7766 547.927 58.7951 549.038 59.8961C550.205 60.9971 551.121 61.7127 551.788 62.043C552.01 62.2082 552.371 62.2908 552.871 62.2908H565.285C565.73 62.2908 566.091 62.2082 566.368 62.043C567.091 61.7127 568.007 60.9971 569.118 59.8961C570.284 58.7951 571.118 57.7766 571.618 56.8408C571.784 56.5105 571.867 56.1527 571.867 55.7673Z" fill="rgb(246, 183, 58)"></path>
    <path d="M528.759 66.5022H524.093V22.0766L509.845 53.2075H506.596L492.432 22.0766V66.5022H487.766V16.9569H494.681L508.262 45.9409L521.927 16.9569H528.759V66.5022Z" fill="#000000"></path>
    <path d="M474.848 66.5021H446.186V16.9568H474.848V21.581H451.018V39.4174H473.598V44.0416H451.018V61.8779H474.848V66.5021Z" fill="#000000"></path>
    <path d="M433.072 66.5021H428.406V22.0765L414.159 53.2075H410.909L396.745 22.0765V66.5021H392.079V16.9568H398.995L412.576 45.9408L426.24 16.9568H433.072V66.5021Z" fill="#000000"></path>
    <path d="M360.613 30.9947L360.03 36.9401V70.8786C360.03 72.6402 359.641 74.099 358.863 75.2551C357.53 77.0718 356.281 78.393 355.114 79.2187C353.725 80.2647 352.004 80.7877 349.948 80.7877H341.45C339.45 80.7877 337.756 80.2647 336.367 79.2187C334.701 78.0627 333.062 76.1084 331.451 73.3559L335.784 71.9521L335.867 72.1172C336.145 72.7228 336.701 73.4384 337.534 74.2642C338.367 75.145 339.117 75.7781 339.783 76.1634C340.172 76.3836 340.644 76.4937 341.2 76.4937H349.865C350.476 76.4937 350.976 76.3836 351.365 76.1634C353.087 75.1725 354.42 73.8238 355.364 72.1172C355.475 71.897 355.531 71.4291 355.531 70.7135V62.2082C354.364 63.4193 353.281 64.4102 352.281 65.1809C350.67 66.337 349.282 66.915 348.115 66.915H341.117C339.061 66.915 337.339 66.392 335.951 65.3461C334.784 64.5203 333.534 63.1991 332.201 61.3824C331.424 60.2264 331.035 58.7675 331.035 57.0059V40.4908C331.035 38.7292 331.424 37.2704 332.201 36.1143C333.534 34.2977 334.784 32.9765 335.951 32.1507C337.339 31.1048 339.061 30.5818 341.117 30.5818H348.115C349.282 30.5818 350.67 31.1598 352.281 32.3159C353.337 33.0866 354.448 34.105 355.614 35.3712L356.114 30.9947H360.613ZM355.531 56.9234V40.5734L355.364 40.1605C354.698 39.2797 353.698 38.3439 352.365 37.353C351.087 36.307 350.004 35.5638 349.115 35.1234C348.782 34.9583 348.365 34.8757 347.865 34.8757H341.2C340.589 34.8757 340.089 34.9858 339.7 35.206C338.034 36.1419 336.728 37.4906 335.784 39.2522C335.617 39.5825 335.534 40.0504 335.534 40.656V56.8408C335.534 57.4463 335.617 57.9143 335.784 58.2446C336.728 60.0062 338.034 61.3549 339.7 62.2908C340.089 62.511 340.589 62.6211 341.2 62.6211H347.865C348.365 62.6211 348.782 62.5385 349.115 62.3733C350.004 61.9329 351.087 61.2173 352.365 60.2264C353.698 59.1804 354.698 58.217 355.364 57.3362L355.531 56.9234Z" fill="#000000"></path>
    <path d="M319.5 66.5021H315V40.656C315 39.9403 314.945 39.4724 314.834 39.2522C313.89 37.5456 312.556 36.1969 310.835 35.206C310.446 34.9858 309.946 34.8757 309.335 34.8757H303.419C302.975 34.8757 302.586 34.9583 302.253 35.1234C299.142 36.7749 297.059 38.4264 296.004 40.078V66.5021H291.504V36.8575L290.921 30.9947H295.421L295.92 35.1234C297.031 33.9123 298.059 32.9765 299.003 32.3159C300.614 31.1598 302.003 30.5818 303.169 30.5818H309.418C311.473 30.5818 313.195 31.1048 314.584 32.1507C315.75 32.9765 317 34.2977 318.333 36.1143C319.111 37.2704 319.5 38.7292 319.5 40.4908V66.5021Z" fill="#000000"></path>
    <path d="M279.01 66.5021H274.511V30.9947H279.01V66.5021ZM279.926 22.9023H273.594V16.5439H279.926V22.9023Z" fill="#000000"></path>
    <path d="M263.44 66.5021H238.111V62.5385L256.941 35.2886H237.444V30.9947H262.523V35.0409L243.776 62.2082H263.44V66.5021Z" fill="#000000"></path>
    <path d="M226.742 66.5021H222.243V40.656C222.243 39.9403 222.187 39.4724 222.076 39.2522C221.132 37.5456 219.799 36.1969 218.077 35.206C217.688 34.9858 217.188 34.8757 216.577 34.8757H210.661C210.217 34.8757 209.828 34.9583 209.495 35.1234C206.384 36.7749 204.301 38.4264 203.246 40.078V66.5021H198.747V36.8575L198.164 30.9947H202.663L203.163 35.1234C204.274 33.9123 205.301 32.9765 206.246 32.3159C207.856 31.1598 209.245 30.5818 210.412 30.5818H216.66C218.716 30.5818 220.438 31.1048 221.826 32.1507C222.993 32.9765 224.243 34.2977 225.576 36.1143C226.353 37.2704 226.742 38.7292 226.742 40.4908V66.5021Z" fill="#000000"></path>
    <path d="M182.691 58.2446L182.774 58.0794L187.19 59.5658C187.079 59.786 186.69 60.3915 186.024 61.3824C184.691 63.1991 183.441 64.5203 182.274 65.3461C180.886 66.392 179.192 66.915 177.192 66.915H168.693C166.638 66.915 164.916 66.392 163.528 65.3461C162.361 64.5203 161.111 63.1991 159.778 61.3824C158.945 60.1713 158.528 58.7125 158.528 57.0059V40.4908C158.528 38.7843 158.945 37.3254 159.778 36.1143C161.111 34.2977 162.361 32.9765 163.528 32.1507C164.916 31.1048 166.638 30.5818 168.693 30.5818H177.025C179.081 30.5818 180.802 31.1048 182.191 32.1507C183.358 32.9765 184.607 34.2977 185.94 36.1143C186.718 37.2704 187.107 38.7292 187.107 40.4908V50.6476H163.028V56.8408C163.028 57.4463 163.111 57.9143 163.278 58.2446C164.222 60.0062 165.527 61.3549 167.194 62.2908C167.582 62.511 168.055 62.6211 168.61 62.6211H177.359C177.97 62.6211 178.47 62.511 178.858 62.2908C180.414 61.41 181.691 60.0612 182.691 58.2446ZM163.278 39.2522C163.111 39.5825 163.028 40.0504 163.028 40.656V46.4363H182.608V40.656C182.608 39.9403 182.552 39.4724 182.441 39.2522C181.497 37.5456 180.164 36.1969 178.442 35.206C178.053 34.9858 177.553 34.8757 176.942 34.8757H168.693C168.138 34.8757 167.666 34.9858 167.277 35.206C165.555 36.1969 164.222 37.5456 163.278 39.2522Z" fill="#000000"></path>
    <path d="M156.328 21.581H142.08V66.5021H137.248V21.581H123V16.9568H156.328V21.581Z" fill="#000000"></path>
    <path fill-rule="evenodd" clip-rule="evenodd" d="M1.73078 8.67047C0 12.0673 0 16.5141 0 25.4075V62.5925C0 71.4859 0 75.9327 1.73078 79.3295C3.25322 82.3175 5.68251 84.7468 8.67047 86.2692C12.0673 88 16.5141 88 25.4075 88H62.5925C71.4859 88 75.9327 88 79.3295 86.2692C82.3175 84.7468 84.7468 82.3175 86.2692 79.3295C88 75.9327 88 71.4859 88 62.5925V25.4075C88 16.5141 88 12.0673 86.2692 8.67047C84.7468 5.68251 82.3175 3.25322 79.3295 1.73078C75.9327 0 71.4859 0 62.5925 0H25.4075C16.5141 0 12.0673 0 8.67047 1.73078C5.68251 3.25322 3.25322 5.68251 1.73078 8.67047ZM9.26312 22.2315C9.26312 18.7833 9.26312 17.0591 9.71649 15.6638C10.6328 12.8438 12.8438 10.6328 15.6638 9.71649C17.0591 9.26312 18.7833 9.26312 22.2315 9.26312H65.7684C69.2167 9.26312 70.9408 9.26312 72.3361 9.71649C75.1562 10.6328 77.3671 12.8438 78.2834 15.6638C78.7368 17.0591 78.7368 18.7833 78.7368 22.2315C78.7368 23.7094 78.7368 24.4483 78.5425 25.0463C78.1498 26.2549 77.2022 27.2024 75.9937 27.5951C75.3957 27.7894 74.6567 27.7894 73.1789 27.7894H14.821C13.3432 27.7894 12.6043 27.7894 12.0063 27.5951C10.7977 27.2024 9.85012 26.2549 9.45742 25.0463C9.26312 24.4483 9.26312 23.7094 9.26312 22.2315ZM9.26312 44.7278C9.26312 42.5044 9.26312 41.3927 9.69582 40.5435C10.0764 39.7965 10.6838 39.1892 11.4307 38.8086C12.28 38.3759 13.3916 38.3759 15.615 38.3759H32.3549C34.5782 38.3759 35.6899 38.3759 36.5391 38.8086C37.2861 39.1892 37.8934 39.7965 38.274 40.5435C38.7067 41.3927 38.7067 42.5044 38.7067 44.7278V72.3849C38.7067 74.6083 38.7067 75.72 38.274 76.5692C37.8934 77.3162 37.2861 77.9235 36.5391 78.3041C35.6899 78.7368 34.5782 78.7368 32.3549 78.7368H24.0842C18.8963 78.7368 16.3024 78.7368 14.3209 77.7272C12.5779 76.8391 11.1608 75.422 10.2727 73.679C9.26312 71.6975 9.26312 69.1036 9.26312 63.9157V44.7278ZM49.7259 40.5435C49.2932 41.3927 49.2932 42.5044 49.2932 44.7278V72.3849C49.2932 74.6083 49.2932 75.72 49.7259 76.5692C50.1065 77.3162 50.7138 77.9235 51.4608 78.3041C52.31 78.7368 53.4217 78.7368 55.6451 78.7368H63.9157C69.1036 78.7368 71.6975 78.7368 73.679 77.7272C75.422 76.8391 76.8391 75.422 77.7272 73.679C78.7368 71.6975 78.7368 69.1036 78.7368 63.9157V44.7278C78.7368 42.5044 78.7368 41.3927 78.3041 40.5435C77.9235 39.7965 77.3162 39.1892 76.5692 38.8086C75.72 38.3759 74.6083 38.3759 72.3849 38.3759H55.6451C53.4217 38.3759 52.31 38.3759 51.4608 38.8086C50.7138 39.1892 50.1065 39.7965 49.7259 40.5435Z" fill="rgb(246, 183, 58)"></path>
  </g>
  <defs>
    <clipPath id="clip0_3335_2191">
      <rect width="577" height="88" fill="white"></rect>
    </clipPath>
  </defs>
</svg>

